<svg width="1229" height="237" viewBox="0 0 1229 237" fill="none" xmlns="http://www.w3.org/2000/svg">
<path d="M100.816 221.904C48.0725 221.904 5.31567 179.147 5.31567 126.404C5.31567 73.6604 48.0725 30.9036 100.816 30.9036" stroke="#1A1A1A" stroke-width="10"/>
<path d="M29.5 62.1277C50.2724 75.6927 64 99.1468 64 125.807C64 152.468 50.2724 175.922 29.5 189.487M101.5 86C76.5 86 41 77 30.5 59.5M101.5 166C76.5 166 41 175 30.5 192.5" stroke="#1A1A1A" stroke-width="10"/>
<line x1="5" y1="124" x2="99" y2="124" stroke="#1A1A1A" stroke-width="10"/>
<path d="M155.988 50.3954C152.013 40.4892 146.183 28.6294 130.813 24.3167C115.443 20.004 103.871 27.3116 101 31.5045V221.382C119.55 229.169 133.097 228.57 143.4 221.382C153.704 214.194 167.913 196.225 141.413 171.667M130.813 63.2506C137.438 57.2608 152.675 44.6821 171.225 53.0679C189.776 61.4537 190.438 81.9845 184.476 96.3601M153.704 99.8208C164.966 93.831 186.463 90.2049 199.713 106.976C212.963 123.748 204.351 147.108 182.488 154.296C188.892 158.888 195.738 172.731 186.463 184.844C180.501 192.631 171.803 199.22 156.565 199.22M126.838 117.758C122.2 124.946 122.863 135.728 130.813 144.712M136.775 90.2049C149.363 94.3978 159.3 100.388 160.625 117.758M148.038 158.489C146.05 168.073 138.1 178.255 124.188 180.052" stroke="#1A1A1A" stroke-width="10" stroke-linecap="round" stroke-linejoin="round"/>
<path d="M101 128.54H122.863" stroke="#1A1A1A" stroke-width="10" stroke-linecap="round"/>
<path d="M251.731 183V165.167H269.192V70.8029H251.731V52.9703H317.674C325.476 52.9703 332.287 54.3325 338.107 57.0569C343.928 59.6575 348.448 63.4346 351.668 68.3881C355.011 73.2178 356.683 78.9762 356.683 85.6635V87.521C356.683 93.4652 355.569 98.3568 353.34 102.196C351.11 106.035 348.386 109.007 345.166 111.112C342.07 113.217 339.098 114.703 336.25 115.57V118.542C339.098 119.285 342.132 120.771 345.352 123.001C348.696 125.106 351.482 128.078 353.711 131.917C356.064 135.756 357.24 140.771 357.24 146.963V148.821C357.24 156.003 355.569 162.133 352.225 167.211C348.881 172.288 344.237 176.189 338.293 178.913C332.473 181.638 325.724 183 318.046 183H251.731ZM289.439 164.796H315.631C322.318 164.796 327.581 163.186 331.42 159.966C335.259 156.746 337.179 152.288 337.179 146.592V144.92C337.179 139.223 335.259 134.765 331.42 131.545C327.705 128.326 322.442 126.716 315.631 126.716H289.439V164.796ZM289.439 108.326H315.631C321.947 108.326 327.024 106.778 330.863 103.682C334.702 100.462 336.621 96.1278 336.621 90.6789V88.8213C336.621 83.3725 334.702 79.1001 330.863 76.0041C327.148 72.7843 322.07 71.1744 315.631 71.1744H289.439V108.326ZM414.841 185.601C405.553 185.601 397.442 183.681 390.507 179.842C383.572 175.879 378.123 170.369 374.16 163.31C370.321 156.127 368.402 147.83 368.402 138.418V136.189C368.402 126.654 370.321 118.357 374.16 111.298C377.999 104.115 383.324 98.6045 390.135 94.7655C397.07 90.8027 405.058 88.8213 414.098 88.8213C422.89 88.8213 430.568 90.8027 437.132 94.7655C443.819 98.6045 449.02 103.991 452.735 110.926C456.45 117.861 458.308 125.973 458.308 135.261V142.505H387.906C388.154 150.554 390.816 156.994 395.894 161.824C401.095 166.53 407.535 168.882 415.212 168.882C422.395 168.882 427.782 167.273 431.373 164.053C435.088 160.833 437.937 157.118 439.918 152.907L455.707 161.081C453.974 164.548 451.435 168.201 448.091 172.04C444.872 175.879 440.599 179.099 435.274 181.7C429.949 184.3 423.138 185.601 414.841 185.601ZM388.092 127.83H438.804C438.308 120.895 435.831 115.508 431.373 111.669C426.915 107.707 421.095 105.725 413.912 105.725C406.73 105.725 400.847 107.707 396.265 111.669C391.807 115.508 389.083 120.895 388.092 127.83ZM504.827 183C499.254 183 494.796 181.328 491.453 177.985C488.233 174.641 486.623 170.183 486.623 164.61V107.583H461.36V91.4219H486.623V61.1436H505.756V91.4219H533.062V107.583H505.756V161.266C505.756 164.982 507.49 166.839 510.957 166.839H530.09V183H504.827ZM547.553 183V52.9703H585.261L613.682 169.626H616.654L645.075 52.9703H682.783V183H663.279V67.0878H660.307L632.072 183H598.264L570.029 67.0878H567.057V183H547.553ZM731.456 185.601C724.893 185.601 719.01 184.486 713.809 182.257C708.732 180.028 704.645 176.746 701.549 172.412C698.577 168.078 697.091 162.814 697.091 156.623C697.091 150.307 698.577 145.106 701.549 141.019C704.645 136.808 708.794 133.651 713.995 131.545C719.32 129.44 725.326 128.388 732.013 128.388H759.877V122.443C759.877 117.118 758.267 112.846 755.047 109.626C751.827 106.406 746.874 104.796 740.187 104.796C733.623 104.796 728.608 106.344 725.14 109.44C721.673 112.536 719.382 116.561 718.267 121.515L700.435 115.756C701.921 110.803 704.274 106.344 707.493 102.382C710.837 98.2949 715.233 95.0132 720.682 92.5365C726.131 90.0597 732.694 88.8213 740.372 88.8213C752.261 88.8213 761.611 91.8554 768.422 97.9234C775.233 103.991 778.638 112.598 778.638 123.744V161.452C778.638 165.167 780.372 167.025 783.839 167.025H791.641V183H777.338C773.004 183 769.474 181.885 766.75 179.656C764.025 177.427 762.663 174.393 762.663 170.554V169.997H759.877C758.886 171.855 757.4 174.022 755.419 176.499C753.437 178.975 750.527 181.142 746.688 183C742.849 184.734 737.772 185.601 731.456 185.601ZM734.242 169.811C741.92 169.811 748.112 167.644 752.818 163.31C757.524 158.852 759.877 152.784 759.877 145.106V143.248H733.128C728.051 143.248 723.964 144.363 720.868 146.592C717.772 148.697 716.224 151.855 716.224 156.065C716.224 160.276 717.834 163.619 721.054 166.096C724.273 168.573 728.67 169.811 734.242 169.811ZM842.618 185.601C833.331 185.601 825.219 183.681 818.284 179.842C811.349 175.879 805.901 170.369 801.938 163.31C798.099 156.127 796.179 147.83 796.179 138.418V136.189C796.179 126.654 798.099 118.357 801.938 111.298C805.777 104.115 811.102 98.6045 817.913 94.7655C824.848 90.8027 832.835 88.8213 841.875 88.8213C850.668 88.8213 858.346 90.8027 864.909 94.7655C871.596 98.6045 876.798 103.991 880.513 110.926C884.228 117.861 886.086 125.973 886.086 135.261V142.505H815.684C815.931 150.554 818.594 156.994 823.671 161.824C828.872 166.53 835.312 168.882 842.99 168.882C850.173 168.882 855.559 167.273 859.151 164.053C862.866 160.833 865.714 157.118 867.696 152.907L883.485 161.081C881.751 164.548 879.213 168.201 875.869 172.04C872.649 175.879 868.377 179.099 863.052 181.7C857.727 184.3 850.916 185.601 842.618 185.601ZM815.869 127.83H866.581C866.086 120.895 863.609 115.508 859.151 111.669C854.693 107.707 848.872 105.725 841.69 105.725C834.507 105.725 828.625 107.707 824.043 111.669C819.585 115.508 816.86 120.895 815.869 127.83ZM939.209 185.601C927.568 185.601 917.909 183 910.231 177.799C902.553 172.598 897.847 164.734 896.113 154.208L913.946 149.935C914.937 155.013 916.609 159.037 918.962 162.009C921.314 164.982 924.225 167.087 927.692 168.325C931.283 169.564 935.122 170.183 939.209 170.183C945.277 170.183 949.921 169.006 953.141 166.653C956.484 164.3 958.156 161.266 958.156 157.551C958.156 153.836 956.608 151.112 953.512 149.378C950.416 147.644 945.834 146.22 939.766 145.106L933.451 143.991C927.259 142.877 921.624 141.267 916.547 139.161C911.469 137.056 907.445 134.146 904.473 130.431C901.5 126.716 900.014 121.948 900.014 116.128C900.014 107.459 903.234 100.772 909.674 96.0658C916.113 91.2362 924.658 88.8213 935.308 88.8213C945.587 88.8213 954.008 91.1742 960.571 95.8801C967.258 100.462 971.593 106.716 973.574 114.642L955.741 119.657C954.627 114.084 952.274 110.183 948.683 107.954C945.091 105.601 940.633 104.425 935.308 104.425C930.107 104.425 926.02 105.416 923.048 107.397C920.076 109.255 918.59 111.917 918.59 115.385C918.59 119.1 920.014 121.824 922.862 123.558C925.835 125.292 929.797 126.592 934.751 127.459L941.252 128.573C947.816 129.688 953.822 131.236 959.271 133.217C964.72 135.199 968.992 138.047 972.088 141.762C975.308 145.477 976.918 150.431 976.918 156.623C976.918 165.787 973.512 172.907 966.701 177.985C959.89 183.062 950.726 185.601 939.209 185.601ZM1024.22 183C1018.65 183 1014.19 181.328 1010.85 177.985C1007.63 174.641 1006.02 170.183 1006.02 164.61V107.583H980.753V91.4219H1006.02V61.1436H1025.15V91.4219H1052.46V107.583H1025.15V161.266C1025.15 164.982 1026.88 166.839 1030.35 166.839H1049.48V183H1024.22ZM1067.5 183V91.4219H1086.26V102.196H1089.24C1090.72 98.3568 1093.08 95.5705 1096.3 93.8368C1099.64 91.9792 1103.73 91.0504 1108.56 91.0504H1119.51V108.326H1107.81C1101.62 108.326 1096.54 110.06 1092.58 113.527C1088.62 116.871 1086.64 122.072 1086.64 129.131V183H1067.5ZM1171.55 185.601C1162.39 185.601 1154.22 183.743 1147.03 180.028C1139.97 176.189 1134.4 170.74 1130.31 163.681C1126.23 156.623 1124.18 148.263 1124.18 138.604V135.818C1124.18 126.158 1126.23 117.861 1130.31 110.926C1134.4 103.868 1139.97 98.4188 1147.03 94.5798C1154.22 90.7408 1162.39 88.8213 1171.55 88.8213C1180.72 88.8213 1188.89 90.7408 1196.07 94.5798C1203.26 98.4188 1208.89 103.868 1212.98 110.926C1217.06 117.861 1219.11 126.158 1219.11 135.818V138.604C1219.11 148.263 1217.06 156.623 1212.98 163.681C1208.89 170.74 1203.26 176.189 1196.07 180.028C1188.89 183.743 1180.72 185.601 1171.55 185.601ZM1171.55 168.511C1179.97 168.511 1186.79 165.848 1191.99 160.523C1197.31 155.075 1199.97 147.582 1199.97 138.047V136.375C1199.97 126.84 1197.37 119.409 1192.17 114.084C1186.97 108.635 1180.1 105.911 1171.55 105.911C1163.26 105.911 1156.44 108.635 1151.12 114.084C1145.92 119.409 1143.32 126.84 1143.32 136.375V138.047C1143.32 147.582 1145.92 155.075 1151.12 160.523C1156.44 165.848 1163.26 168.511 1171.55 168.511Z" fill="#1A1A1A"/>
</svg>
