<svg width="1228" height="237" viewBox="0 0 1228 237" fill="none" xmlns="http://www.w3.org/2000/svg">
<path d="M99.8157 221.904C47.0725 221.904 4.31567 179.147 4.31567 126.404C4.31567 73.6604 47.0725 30.9036 99.8157 30.9036" stroke="white" stroke-width="8"/>
<path d="M28.5 62.1277C49.2724 75.6927 63 99.1468 63 125.807C63 152.468 49.2724 175.922 28.5 189.487M100.5 86C75.5 86 40 77 29.5 59.5M100.5 166C75.5 166 40 175 29.5 192.5" stroke="white" stroke-width="8"/>
<line x1="4" y1="125" x2="98" y2="125" stroke="white" stroke-width="8"/>
<path d="M154.988 50.3954C151.013 40.4892 145.183 28.6294 129.813 24.3167C114.443 20.004 102.871 27.3116 100 31.5045V221.382C118.55 229.169 132.097 228.57 142.4 221.382C152.704 214.194 166.913 196.225 140.413 171.667M129.813 63.2506C136.438 57.2608 151.675 44.6821 170.225 53.0679C188.776 61.4537 189.438 81.9845 183.476 96.3601M152.704 99.8208C163.966 93.831 185.463 90.2049 198.713 106.976C211.963 123.748 203.351 147.108 181.488 154.296C187.892 158.888 194.738 172.731 185.463 184.844C179.501 192.631 170.803 199.22 155.565 199.22M125.838 117.758C121.2 124.946 121.863 135.728 129.813 144.712M135.775 90.2049C148.363 94.3978 158.3 100.388 159.625 117.758M147.038 158.489C145.05 168.073 137.1 178.255 123.188 180.052" stroke="white" stroke-width="8" stroke-linecap="round" stroke-linejoin="round"/>
<path d="M100 128.54H121.863" stroke="white" stroke-width="8" stroke-linecap="round"/>
<path d="M250.731 183V169.068H268.935V66.902H250.731V52.9703H315.931C323.485 52.9703 330.173 54.3325 335.993 57.0569C341.937 59.7814 346.519 63.6203 349.739 68.5738C353.083 73.4035 354.754 79.1001 354.754 85.6635V87.1495C354.754 93.2176 353.578 98.233 351.225 102.196C348.872 106.035 346.086 109.069 342.866 111.298C339.646 113.403 336.488 114.951 333.392 115.942V118.542C336.488 119.285 339.708 120.771 343.052 123.001C346.395 125.106 349.182 128.14 351.411 132.103C353.764 136.065 354.94 141.081 354.94 147.149V149.007C354.94 156.065 353.206 162.195 349.739 167.396C346.395 172.474 341.751 176.375 335.807 179.099C329.987 181.7 323.3 183 315.745 183H250.731ZM284.538 168.882H314.074C322.247 168.882 328.501 166.963 332.835 163.124C337.169 159.285 339.337 154.084 339.337 147.52V145.849C339.337 139.285 337.169 134.084 332.835 130.245C328.501 126.406 322.247 124.487 314.074 124.487H284.538V168.882ZM284.538 110.369H314.631C322.061 110.369 328.005 108.512 332.464 104.796C336.922 100.957 339.151 95.942 339.151 89.7501V87.8925C339.151 81.5768 336.922 76.5614 332.464 72.8462C328.129 69.0073 322.185 67.0878 314.631 67.0878H284.538V110.369ZM414.407 185.601C405.243 185.601 397.193 183.681 390.259 179.842C383.324 175.879 377.937 170.369 374.098 163.31C370.259 156.251 368.339 148.078 368.339 138.79V136.561C368.339 127.149 370.259 118.914 374.098 111.855C377.937 104.796 383.262 99.3475 390.073 95.5086C396.884 91.5458 404.686 89.5644 413.478 89.5644C422.023 89.5644 429.577 91.4219 436.14 95.1371C442.704 98.7284 447.843 103.93 451.558 110.741C455.273 117.552 457.131 125.539 457.131 134.703V141.39H383.014C383.386 151.174 386.543 158.852 392.488 164.424C398.432 169.873 405.862 172.598 414.778 172.598C422.58 172.598 428.586 170.802 432.797 167.211C437.007 163.619 440.227 159.347 442.456 154.393L455.088 160.523C453.23 164.362 450.63 168.201 447.286 172.04C444.066 175.879 439.794 179.099 434.469 181.7C429.267 184.3 422.58 185.601 414.407 185.601ZM383.2 129.316H442.27C441.775 120.895 438.865 114.332 433.54 109.626C428.339 104.92 421.651 102.567 413.478 102.567C405.181 102.567 398.37 104.92 393.045 109.626C387.72 114.332 384.438 120.895 383.2 129.316ZM504.924 183C499.723 183 495.698 181.576 492.85 178.728C490.126 175.879 488.763 171.978 488.763 167.025V104.982H461.457V92.1649H488.763V59.8433H503.438V92.1649H533.159V104.982H503.438V164.796C503.438 168.511 505.234 170.369 508.825 170.369H529.073V183H504.924ZM548.941 183V52.9703H578.662L613.213 173.155H615.628L650.179 52.9703H679.9V183H664.853V63.1869H662.253L627.888 183H600.953L566.588 63.1869H563.988V183H548.941ZM730.655 185.601C724.339 185.601 718.581 184.486 713.38 182.257C708.178 180.028 704.092 176.808 701.12 172.598C698.147 168.387 696.661 163.248 696.661 157.18C696.661 150.988 698.147 145.911 701.12 141.948C704.092 137.861 708.178 134.827 713.38 132.846C718.581 130.74 724.401 129.688 730.841 129.688H761.491V123.001C761.491 116.561 759.571 111.484 755.732 107.769C752.017 104.053 746.444 102.196 739.014 102.196C731.708 102.196 726.011 103.991 721.924 107.583C717.838 111.05 715.051 115.756 713.565 121.7L699.819 117.242C701.305 112.165 703.658 107.583 706.878 103.496C710.098 99.2856 714.37 95.942 719.695 93.4652C725.144 90.8647 731.646 89.5644 739.2 89.5644C750.84 89.5644 759.881 92.5984 766.32 98.6664C772.76 104.611 775.98 113.032 775.98 123.929V164.982C775.98 168.697 777.713 170.554 781.181 170.554H789.54V183H776.723C772.636 183 769.354 181.885 766.877 179.656C764.401 177.303 763.162 174.208 763.162 170.369V169.44H760.933C759.571 171.793 757.713 174.269 755.361 176.87C753.131 179.347 750.036 181.39 746.073 183C742.11 184.734 736.971 185.601 730.655 185.601ZM732.327 172.969C740.995 172.969 747.992 170.43 753.317 165.353C758.766 160.152 761.491 152.907 761.491 143.62V141.576H731.398C725.578 141.576 720.748 142.877 716.909 145.477C713.194 147.954 711.336 151.731 711.336 156.808C711.336 161.886 713.256 165.848 717.095 168.697C721.057 171.545 726.135 172.969 732.327 172.969ZM841.277 185.601C832.113 185.601 824.064 183.681 817.129 179.842C810.194 175.879 804.807 170.369 800.968 163.31C797.129 156.251 795.21 148.078 795.21 138.79V136.561C795.21 127.149 797.129 118.914 800.968 111.855C804.807 104.796 810.132 99.3475 816.943 95.5086C823.754 91.5458 831.556 89.5644 840.349 89.5644C848.893 89.5644 856.448 91.4219 863.011 95.1371C869.574 98.7284 874.714 103.93 878.429 110.741C882.144 117.552 884.001 125.539 884.001 134.703V141.39H809.884C810.256 151.174 813.414 158.852 819.358 164.424C825.302 169.873 832.733 172.598 841.649 172.598C849.451 172.598 855.457 170.802 859.667 167.211C863.878 163.619 867.098 159.347 869.327 154.393L881.958 160.523C880.101 164.362 877.5 168.201 874.156 172.04C870.937 175.879 866.664 179.099 861.339 181.7C856.138 184.3 849.451 185.601 841.277 185.601ZM810.07 129.316H869.141C868.646 120.895 865.735 114.332 860.41 109.626C855.209 104.92 848.522 102.567 840.349 102.567C832.051 102.567 825.24 104.92 819.915 109.626C814.59 114.332 811.309 120.895 810.07 129.316ZM938.762 185.601C927.493 185.601 917.957 183 910.155 177.799C902.477 172.598 897.834 164.362 896.224 153.093L910.155 149.935C911.146 155.88 913.004 160.585 915.728 164.053C918.453 167.396 921.796 169.811 925.759 171.297C929.846 172.66 934.18 173.341 938.762 173.341C945.573 173.341 950.96 171.978 954.923 169.254C958.886 166.53 960.867 162.876 960.867 158.294C960.867 153.589 958.948 150.307 955.109 148.449C951.393 146.468 946.254 144.858 939.691 143.62L932.075 142.319C926.254 141.329 920.929 139.781 916.1 137.675C911.27 135.57 907.431 132.722 904.583 129.131C901.734 125.539 900.31 121.019 900.31 115.57C900.31 107.397 903.468 101.019 909.784 96.4374C916.1 91.8554 924.459 89.5644 934.861 89.5644C945.14 89.5644 953.437 91.9173 959.752 96.6231C966.192 101.205 970.341 107.707 972.198 116.128L958.452 119.657C957.338 113.094 954.675 108.512 950.465 105.911C946.254 103.187 941.053 101.824 934.861 101.824C928.669 101.824 923.778 103.001 920.186 105.354C916.595 107.583 914.799 110.926 914.799 115.385C914.799 119.719 916.471 122.939 919.815 125.044C923.282 127.025 927.864 128.511 933.561 129.502L941.177 130.802C947.616 131.917 953.375 133.465 958.452 135.446C963.653 137.304 967.74 140.028 970.712 143.62C973.808 147.211 975.356 151.917 975.356 157.737C975.356 166.653 972.012 173.526 965.325 178.356C958.762 183.186 949.907 185.601 938.762 185.601ZM1024.14 183C1018.93 183 1014.91 181.576 1012.06 178.728C1009.34 175.879 1007.98 171.978 1007.98 167.025V104.982H980.669V92.1649H1007.98V59.8433H1022.65V92.1649H1052.37V104.982H1022.65V164.796C1022.65 168.511 1024.45 170.369 1028.04 170.369H1048.28V183H1024.14ZM1068.71 183V92.1649H1083.01V103.31H1085.61C1087.22 99.3475 1089.7 96.4374 1093.04 94.5798C1096.39 92.7222 1100.78 91.7934 1106.23 91.7934H1117.01V105.168H1105.3C1098.74 105.168 1093.42 107.025 1089.33 110.741C1085.37 114.332 1083.39 119.967 1083.39 127.644V183H1068.71ZM1170.02 185.601C1160.85 185.601 1152.74 183.681 1145.68 179.842C1138.75 176.003 1133.3 170.616 1129.34 163.681C1125.5 156.623 1123.58 148.325 1123.58 138.79V136.375C1123.58 126.963 1125.5 118.728 1129.34 111.669C1133.3 104.611 1138.75 99.1618 1145.68 95.3228C1152.74 91.4838 1160.85 89.5644 1170.02 89.5644C1179.18 89.5644 1187.23 91.4838 1194.17 95.3228C1201.22 99.1618 1206.67 104.611 1210.51 111.669C1214.48 118.728 1216.46 126.963 1216.46 136.375V138.79C1216.46 148.325 1214.48 156.623 1210.51 163.681C1206.67 170.616 1201.22 176.003 1194.17 179.842C1187.23 183.681 1179.18 185.601 1170.02 185.601ZM1170.02 172.412C1179.68 172.412 1187.35 169.378 1193.05 163.31C1198.87 157.118 1201.78 148.821 1201.78 138.418V136.747C1201.78 126.344 1198.87 118.109 1193.05 112.041C1187.35 105.849 1179.68 102.753 1170.02 102.753C1160.48 102.753 1152.8 105.849 1146.98 112.041C1141.16 118.109 1138.25 126.344 1138.25 136.747V138.418C1138.25 148.821 1141.16 157.118 1146.98 163.31C1152.8 169.378 1160.48 172.412 1170.02 172.412Z" fill="white"/>
</svg>
