<svg width="986" height="237" viewBox="0 0 986 237" fill="none" xmlns="http://www.w3.org/2000/svg">
<path d="M8.73057 183V165.167H26.1917V70.8029H8.73057V52.9703H74.6742C82.476 52.9703 89.2871 54.3325 95.1075 57.0569C100.928 59.6575 105.448 63.4346 108.668 68.3881C112.011 73.2178 113.683 78.9762 113.683 85.6635V87.521C113.683 93.4652 112.569 98.3568 110.34 102.196C108.11 106.035 105.386 109.007 102.166 111.112C99.0703 113.217 96.0982 114.703 93.2499 115.57V118.542C96.0982 119.285 99.1322 120.771 102.352 123.001C105.696 125.106 108.482 128.078 110.711 131.917C113.064 135.756 114.24 140.771 114.24 146.963V148.821C114.24 156.003 112.569 162.133 109.225 167.211C105.881 172.288 101.237 176.189 95.2932 178.913C89.4728 181.638 82.7237 183 75.0457 183H8.73057ZM46.4392 164.796H72.6309C79.3181 164.796 84.5812 163.186 88.4202 159.966C92.2592 156.746 94.1787 152.288 94.1787 146.592V144.92C94.1787 139.223 92.2592 134.765 88.4202 131.545C84.7051 128.326 79.442 126.716 72.6309 126.716H46.4392V164.796ZM46.4392 108.326H72.6309C78.9466 108.326 84.024 106.778 87.8629 103.682C91.7019 100.462 93.6214 96.1278 93.6214 90.6789V88.8213C93.6214 83.3725 91.7019 79.1001 87.8629 76.0041C84.1478 72.7843 79.0705 71.1744 72.6309 71.1744H46.4392V108.326ZM171.841 185.601C162.553 185.601 154.442 183.681 147.507 179.842C140.572 175.879 135.123 170.369 131.16 163.31C127.321 156.127 125.402 147.83 125.402 138.418V136.189C125.402 126.654 127.321 118.357 131.16 111.298C134.999 104.115 140.324 98.6045 147.135 94.7655C154.07 90.8027 162.058 88.8213 171.098 88.8213C179.89 88.8213 187.568 90.8027 194.132 94.7655C200.819 98.6045 206.02 103.991 209.735 110.926C213.45 117.861 215.308 125.973 215.308 135.261V142.505H144.906C145.154 150.554 147.816 156.994 152.894 161.824C158.095 166.53 164.535 168.882 172.212 168.882C179.395 168.882 184.782 167.273 188.373 164.053C192.088 160.833 194.937 157.118 196.918 152.907L212.707 161.081C210.974 164.548 208.435 168.201 205.091 172.04C201.872 175.879 197.599 179.099 192.274 181.7C186.949 184.3 180.138 185.601 171.841 185.601ZM145.092 127.83H195.804C195.308 120.895 192.831 115.508 188.373 111.669C183.915 107.707 178.095 105.725 170.912 105.725C163.73 105.725 157.847 107.707 153.265 111.669C148.807 115.508 146.083 120.895 145.092 127.83ZM261.827 183C256.254 183 251.796 181.328 248.453 177.985C245.233 174.641 243.623 170.183 243.623 164.61V107.583H218.36V91.4219H243.623V61.1436H262.756V91.4219H290.062V107.583H262.756V161.266C262.756 164.982 264.49 166.839 267.957 166.839H287.09V183H261.827ZM304.553 183V52.9703H342.261L370.682 169.626H373.654L402.075 52.9703H439.783V183H420.279V67.0878H417.307L389.072 183H355.264L327.029 67.0878H324.057V183H304.553ZM488.456 185.601C481.893 185.601 476.01 184.486 470.809 182.257C465.732 180.028 461.645 176.746 458.549 172.412C455.577 168.078 454.091 162.814 454.091 156.623C454.091 150.307 455.577 145.106 458.549 141.019C461.645 136.808 465.794 133.651 470.995 131.545C476.32 129.44 482.326 128.388 489.013 128.388H516.877V122.443C516.877 117.118 515.267 112.846 512.047 109.626C508.827 106.406 503.874 104.796 497.187 104.796C490.623 104.796 485.608 106.344 482.14 109.44C478.673 112.536 476.382 116.561 475.267 121.515L457.435 115.756C458.921 110.803 461.274 106.344 464.493 102.382C467.837 98.2949 472.233 95.0132 477.682 92.5365C483.131 90.0597 489.694 88.8213 497.372 88.8213C509.261 88.8213 518.611 91.8554 525.422 97.9234C532.233 103.991 535.638 112.598 535.638 123.744V161.452C535.638 165.167 537.372 167.025 540.839 167.025H548.641V183H534.338C530.004 183 526.474 181.885 523.75 179.656C521.025 177.427 519.663 174.393 519.663 170.554V169.997H516.877C515.886 171.855 514.4 174.022 512.419 176.499C510.437 178.975 507.527 181.142 503.688 183C499.849 184.734 494.772 185.601 488.456 185.601ZM491.242 169.811C498.92 169.811 505.112 167.644 509.818 163.31C514.524 158.852 516.877 152.784 516.877 145.106V143.248H490.128C485.051 143.248 480.964 144.363 477.868 146.592C474.772 148.697 473.224 151.855 473.224 156.065C473.224 160.276 474.834 163.619 478.054 166.096C481.273 168.573 485.67 169.811 491.242 169.811ZM599.618 185.601C590.331 185.601 582.219 183.681 575.284 179.842C568.349 175.879 562.901 170.369 558.938 163.31C555.099 156.127 553.179 147.83 553.179 138.418V136.189C553.179 126.654 555.099 118.357 558.938 111.298C562.777 104.115 568.102 98.6045 574.913 94.7655C581.848 90.8027 589.835 88.8213 598.875 88.8213C607.668 88.8213 615.346 90.8027 621.909 94.7655C628.596 98.6045 633.798 103.991 637.513 110.926C641.228 117.861 643.086 125.973 643.086 135.261V142.505H572.684C572.931 150.554 575.594 156.994 580.671 161.824C585.872 166.53 592.312 168.882 599.99 168.882C607.173 168.882 612.559 167.273 616.151 164.053C619.866 160.833 622.714 157.118 624.696 152.907L640.485 161.081C638.751 164.548 636.213 168.201 632.869 172.04C629.649 175.879 625.377 179.099 620.052 181.7C614.727 184.3 607.916 185.601 599.618 185.601ZM572.869 127.83H623.581C623.086 120.895 620.609 115.508 616.151 111.669C611.693 107.707 605.872 105.725 598.69 105.725C591.507 105.725 585.625 107.707 581.043 111.669C576.585 115.508 573.86 120.895 572.869 127.83ZM696.209 185.601C684.568 185.601 674.909 183 667.231 177.799C659.553 172.598 654.847 164.734 653.113 154.208L670.946 149.935C671.937 155.013 673.609 159.037 675.962 162.009C678.314 164.982 681.225 167.087 684.692 168.325C688.283 169.564 692.122 170.183 696.209 170.183C702.277 170.183 706.921 169.006 710.141 166.653C713.484 164.3 715.156 161.266 715.156 157.551C715.156 153.836 713.608 151.112 710.512 149.378C707.416 147.644 702.834 146.22 696.766 145.106L690.451 143.991C684.259 142.877 678.624 141.267 673.547 139.161C668.469 137.056 664.445 134.146 661.473 130.431C658.5 126.716 657.014 121.948 657.014 116.128C657.014 107.459 660.234 100.772 666.674 96.0658C673.113 91.2362 681.658 88.8213 692.308 88.8213C702.587 88.8213 711.008 91.1742 717.571 95.8801C724.258 100.462 728.593 106.716 730.574 114.642L712.741 119.657C711.627 114.084 709.274 110.183 705.683 107.954C702.091 105.601 697.633 104.425 692.308 104.425C687.107 104.425 683.02 105.416 680.048 107.397C677.076 109.255 675.59 111.917 675.59 115.385C675.59 119.1 677.014 121.824 679.862 123.558C682.835 125.292 686.797 126.592 691.751 127.459L698.252 128.573C704.816 129.688 710.822 131.236 716.271 133.217C721.72 135.199 725.992 138.047 729.088 141.762C732.308 145.477 733.918 150.431 733.918 156.623C733.918 165.787 730.512 172.907 723.701 177.985C716.89 183.062 707.726 185.601 696.209 185.601ZM781.22 183C775.648 183 771.189 181.328 767.846 177.985C764.626 174.641 763.016 170.183 763.016 164.61V107.583H737.753V91.4219H763.016V61.1436H782.149V91.4219H809.455V107.583H782.149V161.266C782.149 164.982 783.883 166.839 787.35 166.839H806.483V183H781.22ZM824.503 183V91.4219H843.265V102.196H846.237C847.723 98.3568 850.076 95.5705 853.295 93.8368C856.639 91.9792 860.726 91.0504 865.555 91.0504H876.515V108.326H864.812C858.62 108.326 853.543 110.06 849.58 113.527C845.617 116.871 843.636 122.072 843.636 129.131V183H824.503ZM928.553 185.601C919.389 185.601 911.216 183.743 904.033 180.028C896.974 176.189 891.402 170.74 887.315 163.681C883.228 156.623 881.185 148.263 881.185 138.604V135.818C881.185 126.158 883.228 117.861 887.315 110.926C891.402 103.868 896.974 98.4188 904.033 94.5798C911.216 90.7408 919.389 88.8213 928.553 88.8213C937.717 88.8213 945.89 90.7408 953.073 94.5798C960.255 98.4188 965.89 103.868 969.977 110.926C974.063 117.861 976.107 126.158 976.107 135.818V138.604C976.107 148.263 974.063 156.623 969.977 163.681C965.89 170.74 960.255 176.189 953.073 180.028C945.89 183.743 937.717 185.601 928.553 185.601ZM928.553 168.511C936.974 168.511 943.785 165.848 948.986 160.523C954.311 155.075 956.974 147.582 956.974 138.047V136.375C956.974 126.84 954.373 119.409 949.172 114.084C943.971 108.635 937.098 105.911 928.553 105.911C920.256 105.911 913.445 108.635 908.12 114.084C902.919 119.409 900.318 126.84 900.318 136.375V138.047C900.318 147.582 902.919 155.075 908.12 160.523C913.445 165.848 920.256 168.511 928.553 168.511Z" fill="#1A1A1A"/>
</svg>
