<svg width="986" height="237" viewBox="0 0 986 237" fill="none" xmlns="http://www.w3.org/2000/svg">
<path d="M8.73057 183V169.068H26.9347V66.902H8.73057V52.9703H73.9312C81.4853 52.9703 88.1725 54.3325 93.9929 57.0569C99.9371 59.7814 104.519 63.6203 107.739 68.5738C111.083 73.4035 112.754 79.1001 112.754 85.6635V87.1495C112.754 93.2176 111.578 98.233 109.225 102.196C106.872 106.035 104.086 109.069 100.866 111.298C97.6461 113.403 94.4883 114.951 91.3923 115.942V118.542C94.4883 119.285 97.7081 120.771 101.052 123.001C104.395 125.106 107.182 128.14 109.411 132.103C111.764 136.065 112.94 141.081 112.94 147.149V149.007C112.94 156.065 111.206 162.195 107.739 167.396C104.395 172.474 99.7514 176.375 93.8072 179.099C87.9868 181.7 81.2995 183 73.7454 183H8.73057ZM42.5383 168.882H72.0736C80.2469 168.882 86.5007 166.963 90.8351 163.124C95.1694 159.285 97.3365 154.084 97.3365 147.52V145.849C97.3365 139.285 95.1694 134.084 90.8351 130.245C86.5007 126.406 80.2469 124.487 72.0736 124.487H42.5383V168.882ZM42.5383 110.369H72.6309C80.0612 110.369 86.0054 108.512 90.4635 104.796C94.9217 100.957 97.1508 95.942 97.1508 89.7501V87.8925C97.1508 81.5768 94.9217 76.5614 90.4635 72.8462C86.1292 69.0073 80.185 67.0878 72.6309 67.0878H42.5383V110.369ZM172.407 185.601C163.243 185.601 155.193 183.681 148.259 179.842C141.324 175.879 135.937 170.369 132.098 163.31C128.259 156.251 126.339 148.078 126.339 138.79V136.561C126.339 127.149 128.259 118.914 132.098 111.855C135.937 104.796 141.262 99.3475 148.073 95.5086C154.884 91.5458 162.686 89.5644 171.478 89.5644C180.023 89.5644 187.577 91.4219 194.14 95.1371C200.704 98.7284 205.843 103.93 209.558 110.741C213.273 117.552 215.131 125.539 215.131 134.703V141.39H141.014C141.386 151.174 144.543 158.852 150.488 164.424C156.432 169.873 163.862 172.598 172.778 172.598C180.58 172.598 186.586 170.802 190.797 167.211C195.007 163.619 198.227 159.347 200.456 154.393L213.088 160.523C211.23 164.362 208.63 168.201 205.286 172.04C202.066 175.879 197.794 179.099 192.469 181.7C187.267 184.3 180.58 185.601 172.407 185.601ZM141.2 129.316H200.27C199.775 120.895 196.865 114.332 191.54 109.626C186.339 104.92 179.651 102.567 171.478 102.567C163.181 102.567 156.37 104.92 151.045 109.626C145.72 114.332 142.438 120.895 141.2 129.316ZM262.924 183C257.723 183 253.698 181.576 250.85 178.728C248.126 175.879 246.763 171.978 246.763 167.025V104.982H219.457V92.1649H246.763V59.8433H261.438V92.1649H291.159V104.982H261.438V164.796C261.438 168.511 263.234 170.369 266.825 170.369H287.073V183H262.924ZM306.941 183V52.9703H336.662L371.213 173.155H373.628L408.179 52.9703H437.9V183H422.853V63.1869H420.253L385.888 183H358.953L324.588 63.1869H321.988V183H306.941ZM488.655 185.601C482.339 185.601 476.581 184.486 471.38 182.257C466.178 180.028 462.092 176.808 459.12 172.598C456.147 168.387 454.661 163.248 454.661 157.18C454.661 150.988 456.147 145.911 459.12 141.948C462.092 137.861 466.178 134.827 471.38 132.846C476.581 130.74 482.401 129.688 488.841 129.688H519.491V123.001C519.491 116.561 517.571 111.484 513.732 107.769C510.017 104.053 504.444 102.196 497.014 102.196C489.708 102.196 484.011 103.991 479.924 107.583C475.838 111.05 473.051 115.756 471.565 121.7L457.819 117.242C459.305 112.165 461.658 107.583 464.878 103.496C468.098 99.2856 472.37 95.942 477.695 93.4652C483.144 90.8647 489.646 89.5644 497.2 89.5644C508.84 89.5644 517.881 92.5984 524.32 98.6664C530.76 104.611 533.98 113.032 533.98 123.929V164.982C533.98 168.697 535.713 170.554 539.181 170.554H547.54V183H534.723C530.636 183 527.354 181.885 524.877 179.656C522.401 177.303 521.162 174.208 521.162 170.369V169.44H518.933C517.571 171.793 515.713 174.269 513.361 176.87C511.131 179.347 508.036 181.39 504.073 183C500.11 184.734 494.971 185.601 488.655 185.601ZM490.327 172.969C498.995 172.969 505.992 170.43 511.317 165.353C516.766 160.152 519.491 152.907 519.491 143.62V141.576H489.398C483.578 141.576 478.748 142.877 474.909 145.477C471.194 147.954 469.336 151.731 469.336 156.808C469.336 161.886 471.256 165.848 475.095 168.697C479.057 171.545 484.135 172.969 490.327 172.969ZM599.277 185.601C590.113 185.601 582.064 183.681 575.129 179.842C568.194 175.879 562.807 170.369 558.968 163.31C555.129 156.251 553.21 148.078 553.21 138.79V136.561C553.21 127.149 555.129 118.914 558.968 111.855C562.807 104.796 568.132 99.3475 574.943 95.5086C581.754 91.5458 589.556 89.5644 598.349 89.5644C606.893 89.5644 614.448 91.4219 621.011 95.1371C627.574 98.7284 632.714 103.93 636.429 110.741C640.144 117.552 642.001 125.539 642.001 134.703V141.39H567.884C568.256 151.174 571.414 158.852 577.358 164.424C583.302 169.873 590.733 172.598 599.649 172.598C607.451 172.598 613.457 170.802 617.667 167.211C621.878 163.619 625.098 159.347 627.327 154.393L639.958 160.523C638.101 164.362 635.5 168.201 632.156 172.04C628.937 175.879 624.664 179.099 619.339 181.7C614.138 184.3 607.451 185.601 599.277 185.601ZM568.07 129.316H627.141C626.646 120.895 623.735 114.332 618.41 109.626C613.209 104.92 606.522 102.567 598.349 102.567C590.051 102.567 583.24 104.92 577.915 109.626C572.59 114.332 569.309 120.895 568.07 129.316ZM696.762 185.601C685.493 185.601 675.957 183 668.155 177.799C660.477 172.598 655.834 164.362 654.224 153.093L668.155 149.935C669.146 155.88 671.004 160.585 673.728 164.053C676.453 167.396 679.796 169.811 683.759 171.297C687.846 172.66 692.18 173.341 696.762 173.341C703.573 173.341 708.96 171.978 712.923 169.254C716.886 166.53 718.867 162.876 718.867 158.294C718.867 153.589 716.948 150.307 713.109 148.449C709.393 146.468 704.254 144.858 697.691 143.62L690.075 142.319C684.254 141.329 678.929 139.781 674.1 137.675C669.27 135.57 665.431 132.722 662.583 129.131C659.734 125.539 658.31 121.019 658.31 115.57C658.31 107.397 661.468 101.019 667.784 96.4374C674.1 91.8554 682.459 89.5644 692.861 89.5644C703.14 89.5644 711.437 91.9173 717.752 96.6231C724.192 101.205 728.341 107.707 730.198 116.128L716.452 119.657C715.338 113.094 712.675 108.512 708.465 105.911C704.254 103.187 699.053 101.824 692.861 101.824C686.669 101.824 681.778 103.001 678.186 105.354C674.595 107.583 672.799 110.926 672.799 115.385C672.799 119.719 674.471 122.939 677.815 125.044C681.282 127.025 685.864 128.511 691.561 129.502L699.177 130.802C705.616 131.917 711.375 133.465 716.452 135.446C721.653 137.304 725.74 140.028 728.712 143.62C731.808 147.211 733.356 151.917 733.356 157.737C733.356 166.653 730.012 173.526 723.325 178.356C716.762 183.186 707.907 185.601 696.762 185.601ZM782.136 183C776.935 183 772.91 181.576 770.062 178.728C767.337 175.879 765.975 171.978 765.975 167.025V104.982H738.669V92.1649H765.975V59.8433H780.65V92.1649H810.371V104.982H780.65V164.796C780.65 168.511 782.446 170.369 786.037 170.369H806.284V183H782.136ZM826.71 183V92.1649H841.014V103.31H843.614C845.224 99.3475 847.701 96.4374 851.045 94.5798C854.388 92.7222 858.784 91.7934 864.233 91.7934H875.007V105.168H863.304C856.741 105.168 851.416 107.025 847.329 110.741C843.367 114.332 841.385 119.967 841.385 127.644V183H826.71ZM928.017 185.601C918.853 185.601 910.742 183.681 903.683 179.842C896.748 176.003 891.3 170.616 887.337 163.681C883.498 156.623 881.578 148.325 881.578 138.79V136.375C881.578 126.963 883.498 118.728 887.337 111.669C891.3 104.611 896.748 99.1618 903.683 95.3228C910.742 91.4838 918.853 89.5644 928.017 89.5644C937.181 89.5644 945.231 91.4838 952.166 95.3228C959.225 99.1618 964.673 104.611 968.512 111.669C972.475 118.728 974.457 126.963 974.457 136.375V138.79C974.457 148.325 972.475 156.623 968.512 163.681C964.673 170.616 959.225 176.003 952.166 179.842C945.231 183.681 937.181 185.601 928.017 185.601ZM928.017 172.412C937.677 172.412 945.355 169.378 951.051 163.31C956.872 157.118 959.782 148.821 959.782 138.418V136.747C959.782 126.344 956.872 118.109 951.051 112.041C945.355 105.849 937.677 102.753 928.017 102.753C918.482 102.753 910.804 105.849 904.984 112.041C899.163 118.109 896.253 126.344 896.253 136.747V138.418C896.253 148.821 899.163 157.118 904.984 163.31C910.804 169.378 918.482 172.412 928.017 172.412Z" fill="white"/>
</svg>
